<mxfile host="app.diagrams.net" agent="Mozilla/5.0 (Windows NT 10.0; Win64; x64) AppleWebKit/537.36 (KHTML, like Gecko) Chrome/133.0.0.0 Safari/537.36" version="26.0.16">
  <diagram name="Page-1" id="SOlax2BqmMib61U9e00-">
    <mxGraphModel dx="1376" dy="818" grid="1" gridSize="10" guides="1" tooltips="1" connect="1" arrows="1" fold="1" page="1" pageScale="1" pageWidth="850" pageHeight="1100" math="0" shadow="0">
      <root>
        <mxCell id="0" />
        <mxCell id="1" parent="0" />
        <mxCell id="yMuoYjZbkn46zVgACYHf-1" value="" style="strokeWidth=1;shadow=0;dashed=0;align=center;html=1;shape=mxgraph.mockup.containers.browserWindow;rSize=0;strokeColor=#666666;strokeColor2=#008cff;strokeColor3=#c4c4c4;mainText=,;recursiveResize=0;" parent="1" vertex="1">
          <mxGeometry y="60" width="850" height="1580" as="geometry" />
        </mxCell>
        <mxCell id="yMuoYjZbkn46zVgACYHf-12" value="" style="verticalLabelPosition=bottom;shadow=0;dashed=0;align=center;html=1;verticalAlign=top;strokeWidth=1;shape=mxgraph.mockup.graphics.simpleIcon;strokeColor=#999999;perimeterSpacing=1;" parent="yMuoYjZbkn46zVgACYHf-1" vertex="1">
          <mxGeometry y="180" width="850" height="240" as="geometry" />
        </mxCell>
        <mxCell id="yMuoYjZbkn46zVgACYHf-2" value="Media" style="strokeWidth=1;shadow=0;dashed=0;align=center;html=1;shape=mxgraph.mockup.containers.anchor;fontSize=17;fontColor=#666666;align=left;whiteSpace=wrap;" parent="yMuoYjZbkn46zVgACYHf-1" vertex="1">
          <mxGeometry x="60" y="12" width="110" height="26" as="geometry" />
        </mxCell>
        <mxCell id="yMuoYjZbkn46zVgACYHf-3" value="https://www.JacobWeltyMusic.com" style="strokeWidth=1;shadow=0;dashed=0;align=center;html=1;shape=mxgraph.mockup.containers.anchor;rSize=0;fontSize=17;fontColor=#666666;align=left;" parent="yMuoYjZbkn46zVgACYHf-1" vertex="1">
          <mxGeometry x="130" y="60" width="250" height="26" as="geometry" />
        </mxCell>
        <mxCell id="yMuoYjZbkn46zVgACYHf-5" value="" style="rounded=1;whiteSpace=wrap;html=1;direction=south;" parent="yMuoYjZbkn46zVgACYHf-1" vertex="1">
          <mxGeometry y="110" width="160" height="410" as="geometry" />
        </mxCell>
        <mxCell id="yMuoYjZbkn46zVgACYHf-6" value="" style="rounded=1;whiteSpace=wrap;html=1;" parent="yMuoYjZbkn46zVgACYHf-1" vertex="1">
          <mxGeometry y="110" width="160" height="70" as="geometry" />
        </mxCell>
        <mxCell id="yMuoYjZbkn46zVgACYHf-7" value="" style="rounded=1;whiteSpace=wrap;html=1;" parent="yMuoYjZbkn46zVgACYHf-1" vertex="1">
          <mxGeometry y="180" width="160" height="70" as="geometry" />
        </mxCell>
        <mxCell id="yMuoYjZbkn46zVgACYHf-8" value="" style="rounded=1;whiteSpace=wrap;html=1;" parent="yMuoYjZbkn46zVgACYHf-1" vertex="1">
          <mxGeometry y="250" width="160" height="70" as="geometry" />
        </mxCell>
        <mxCell id="yMuoYjZbkn46zVgACYHf-9" value="&lt;font style=&quot;font-size: 18px;&quot;&gt;&lt;u&gt;Home&lt;/u&gt;&lt;/font&gt;" style="text;html=1;align=center;verticalAlign=middle;whiteSpace=wrap;rounded=0;" parent="yMuoYjZbkn46zVgACYHf-1" vertex="1">
          <mxGeometry x="50" y="130" width="70" height="40" as="geometry" />
        </mxCell>
        <mxCell id="yMuoYjZbkn46zVgACYHf-10" value="&lt;font style=&quot;font-size: 18px;&quot;&gt;&lt;u&gt;Media&lt;/u&gt;&lt;/font&gt;" style="text;html=1;align=center;verticalAlign=middle;whiteSpace=wrap;rounded=0;" parent="yMuoYjZbkn46zVgACYHf-1" vertex="1">
          <mxGeometry x="50" y="200" width="60" height="30" as="geometry" />
        </mxCell>
        <mxCell id="yMuoYjZbkn46zVgACYHf-11" value="&lt;font style=&quot;font-size: 18px;&quot;&gt;&lt;u&gt;Blog&lt;/u&gt;&lt;/font&gt;" style="text;html=1;align=center;verticalAlign=middle;whiteSpace=wrap;rounded=0;" parent="yMuoYjZbkn46zVgACYHf-1" vertex="1">
          <mxGeometry x="50" y="270" width="60" height="30" as="geometry" />
        </mxCell>
        <mxCell id="yMuoYjZbkn46zVgACYHf-13" value="&lt;font style=&quot;font-size: 18px;&quot;&gt;IMG&lt;/font&gt;" style="text;html=1;align=center;verticalAlign=middle;whiteSpace=wrap;rounded=0;fillColor=#E6E6E6;perimeterSpacing=1;" parent="yMuoYjZbkn46zVgACYHf-1" vertex="1">
          <mxGeometry x="390" y="280" width="70" height="40" as="geometry" />
        </mxCell>
        <mxCell id="yMuoYjZbkn46zVgACYHf-14" value="&lt;h1 style=&quot;margin-top: 0px;&quot;&gt;Jacob Welty&lt;/h1&gt;" style="text;html=1;whiteSpace=wrap;overflow=hidden;rounded=0;align=center;" parent="yMuoYjZbkn46zVgACYHf-1" vertex="1">
          <mxGeometry x="335" y="125" width="180" height="50" as="geometry" />
        </mxCell>
        <mxCell id="yMuoYjZbkn46zVgACYHf-18" style="edgeStyle=orthogonalEdgeStyle;rounded=0;orthogonalLoop=1;jettySize=auto;html=1;exitX=1;exitY=0.5;exitDx=0;exitDy=0;" parent="yMuoYjZbkn46zVgACYHf-1" source="yMuoYjZbkn46zVgACYHf-5" target="yMuoYjZbkn46zVgACYHf-5" edge="1">
          <mxGeometry relative="1" as="geometry" />
        </mxCell>
        <mxCell id="yMuoYjZbkn46zVgACYHf-26" value="" style="verticalLabelPosition=bottom;shadow=0;dashed=0;align=center;html=1;verticalAlign=top;strokeWidth=1;shape=mxgraph.mockup.forms.horSlider;strokeColor=#999999;sliderStyle=basic;sliderPos=97.902;handleStyle=circle;fillColor2=#ddeeff;direction=north;" parent="yMuoYjZbkn46zVgACYHf-1" vertex="1">
          <mxGeometry x="810" y="180" width="30" height="1430" as="geometry" />
        </mxCell>
        <mxCell id="yMuoYjZbkn46zVgACYHf-30" value="Book Now" style="shape=rectangle;strokeColor=none;fillColor=none;linkText=;fontSize=17;fontColor=#0000ff;fontStyle=4;html=1;align=center;" parent="yMuoYjZbkn46zVgACYHf-1" vertex="1">
          <mxGeometry x="700" y="130" width="150" height="30" as="geometry" />
        </mxCell>
        <mxCell id="yMuoYjZbkn46zVgACYHf-34" value="" style="rounded=0;whiteSpace=wrap;html=1;" parent="yMuoYjZbkn46zVgACYHf-1" vertex="1">
          <mxGeometry y="1510" width="850" height="70" as="geometry" />
        </mxCell>
        <mxCell id="yMuoYjZbkn46zVgACYHf-35" value="Created by August Case" style="text;html=1;align=center;verticalAlign=middle;whiteSpace=wrap;rounded=0;" parent="yMuoYjZbkn46zVgACYHf-1" vertex="1">
          <mxGeometry x="10" y="1530" width="80" height="30" as="geometry" />
        </mxCell>
        <mxCell id="yMuoYjZbkn46zVgACYHf-40" value="Contact" style="shape=rectangle;strokeColor=none;fillColor=none;linkText=;fontSize=17;fontColor=#0000ff;fontStyle=4;html=1;align=center;" parent="yMuoYjZbkn46zVgACYHf-1" vertex="1">
          <mxGeometry x="350" y="1530" width="150" height="30" as="geometry" />
        </mxCell>
        <mxCell id="vy2XQ0ilyR1NUOEtw_TU-1" value="&lt;h1 style=&quot;margin-top: 0px;&quot;&gt;Images&lt;/h1&gt;" style="text;html=1;whiteSpace=wrap;overflow=hidden;rounded=0;align=center;" vertex="1" parent="yMuoYjZbkn46zVgACYHf-1">
          <mxGeometry x="335" y="470" width="180" height="40" as="geometry" />
        </mxCell>
        <mxCell id="vy2XQ0ilyR1NUOEtw_TU-2" value="" style="verticalLabelPosition=bottom;shadow=0;dashed=0;align=center;html=1;verticalAlign=top;strokeWidth=1;shape=mxgraph.mockup.navigation.coverFlow;strokeColor=#999999;" vertex="1" parent="yMuoYjZbkn46zVgACYHf-1">
          <mxGeometry x="10" y="530" width="830" height="200" as="geometry" />
        </mxCell>
        <mxCell id="vy2XQ0ilyR1NUOEtw_TU-4" value="" style="verticalLabelPosition=bottom;shadow=0;dashed=0;align=center;html=1;verticalAlign=top;strokeWidth=1;shape=mxgraph.mockup.navigation.pageControl;fillColor=#999999;strokeColor=#ddeeff;" vertex="1" parent="yMuoYjZbkn46zVgACYHf-1">
          <mxGeometry x="375" y="740" width="100" height="30" as="geometry" />
        </mxCell>
        <mxCell id="vy2XQ0ilyR1NUOEtw_TU-5" value="&lt;font style=&quot;font-size: 18px;&quot;&gt;IMG&lt;/font&gt;" style="text;html=1;align=center;verticalAlign=middle;whiteSpace=wrap;rounded=0;fillColor=#E6E6E6;perimeterSpacing=1;" vertex="1" parent="yMuoYjZbkn46zVgACYHf-1">
          <mxGeometry x="390" y="610" width="70" height="40" as="geometry" />
        </mxCell>
        <mxCell id="vy2XQ0ilyR1NUOEtw_TU-6" value="&lt;h1 style=&quot;margin-top: 0px;&quot;&gt;Videos&lt;/h1&gt;" style="text;html=1;whiteSpace=wrap;overflow=hidden;rounded=0;align=center;" vertex="1" parent="yMuoYjZbkn46zVgACYHf-1">
          <mxGeometry x="335" y="810" width="180" height="50" as="geometry" />
        </mxCell>
        <mxCell id="vy2XQ0ilyR1NUOEtw_TU-8" value="" style="verticalLabelPosition=bottom;shadow=0;dashed=0;align=center;html=1;verticalAlign=top;strokeWidth=1;shape=mxgraph.mockup.containers.videoPlayer;strokeColor=#666666;strokeColor2=#008cff;strokeColor3=#c4c4c4;textColor=#666666;fillColor2=#008cff;barHeight=30;barPos=20;" vertex="1" parent="yMuoYjZbkn46zVgACYHf-1">
          <mxGeometry x="220" y="870" width="410" height="220" as="geometry" />
        </mxCell>
        <mxCell id="vy2XQ0ilyR1NUOEtw_TU-9" value="" style="dashed=0;outlineConnect=0;html=1;align=center;labelPosition=center;verticalLabelPosition=bottom;verticalAlign=top;shape=mxgraph.weblogos.youtube;fillColor=#FF2626;gradientColor=#B5171F" vertex="1" parent="yMuoYjZbkn46zVgACYHf-1">
          <mxGeometry x="381" y="945.8" width="87.2" height="34.2" as="geometry" />
        </mxCell>
        <mxCell id="vy2XQ0ilyR1NUOEtw_TU-10" value="" style="rounded=1;whiteSpace=wrap;html=1;" vertex="1" parent="yMuoYjZbkn46zVgACYHf-1">
          <mxGeometry x="279" y="430" width="292" height="30" as="geometry" />
        </mxCell>
        <mxCell id="vy2XQ0ilyR1NUOEtw_TU-12" value="" style="dashed=0;outlineConnect=0;html=1;align=center;labelPosition=center;verticalLabelPosition=bottom;verticalAlign=top;shape=mxgraph.webicons.twitter;fillColor=#49EAF7;gradientColor=#137BD0" vertex="1" parent="yMuoYjZbkn46zVgACYHf-1">
          <mxGeometry x="300" y="430" width="26.2" height="30" as="geometry" />
        </mxCell>
        <mxCell id="vy2XQ0ilyR1NUOEtw_TU-13" value="" style="dashed=0;outlineConnect=0;html=1;align=center;labelPosition=center;verticalLabelPosition=bottom;verticalAlign=top;shape=mxgraph.webicons.facebook;fillColor=#6294E4;gradientColor=#1A2665" vertex="1" parent="yMuoYjZbkn46zVgACYHf-1">
          <mxGeometry x="350" y="430" width="30" height="30" as="geometry" />
        </mxCell>
        <mxCell id="vy2XQ0ilyR1NUOEtw_TU-14" value="" style="dashed=0;outlineConnect=0;html=1;align=center;labelPosition=center;verticalLabelPosition=bottom;verticalAlign=top;shape=mxgraph.webicons.instagram;gradientColor=#DFDEDE" vertex="1" parent="yMuoYjZbkn46zVgACYHf-1">
          <mxGeometry x="408.4" y="430" width="32.4" height="30" as="geometry" />
        </mxCell>
        <mxCell id="vy2XQ0ilyR1NUOEtw_TU-18" value="" style="dashed=0;outlineConnect=0;html=1;align=center;labelPosition=center;verticalLabelPosition=bottom;verticalAlign=top;shape=mxgraph.weblogos.youtube_2;fillColor=#FF2626;gradientColor=#B5171F" vertex="1" parent="yMuoYjZbkn46zVgACYHf-1">
          <mxGeometry x="460" y="430" width="35" height="30" as="geometry" />
        </mxCell>
        <mxCell id="vy2XQ0ilyR1NUOEtw_TU-19" value="" style="dashed=0;outlineConnect=0;html=1;align=center;labelPosition=center;verticalLabelPosition=bottom;verticalAlign=top;shape=mxgraph.weblogos.soundcloud;fillColor=#FE4600;strokeColor=none" vertex="1" parent="yMuoYjZbkn46zVgACYHf-1">
          <mxGeometry x="510" y="430" width="45" height="30" as="geometry" />
        </mxCell>
        <mxCell id="vy2XQ0ilyR1NUOEtw_TU-21" value="&lt;h1 style=&quot;margin-top: 0px;&quot;&gt;Inspirations&lt;/h1&gt;" style="text;html=1;whiteSpace=wrap;overflow=hidden;rounded=0;align=center;" vertex="1" parent="yMuoYjZbkn46zVgACYHf-1">
          <mxGeometry x="335" y="1150" width="180" height="50" as="geometry" />
        </mxCell>
        <mxCell id="vy2XQ0ilyR1NUOEtw_TU-22" value="" style="verticalLabelPosition=bottom;shadow=0;dashed=0;align=center;html=1;verticalAlign=top;strokeWidth=1;shape=mxgraph.mockup.navigation.coverFlow;strokeColor=#999999;" vertex="1" parent="yMuoYjZbkn46zVgACYHf-1">
          <mxGeometry x="10" y="1200" width="830" height="200" as="geometry" />
        </mxCell>
        <mxCell id="vy2XQ0ilyR1NUOEtw_TU-23" value="&lt;font style=&quot;font-size: 18px;&quot;&gt;IMG&lt;/font&gt;" style="text;html=1;align=center;verticalAlign=middle;whiteSpace=wrap;rounded=0;fillColor=#E6E6E6;perimeterSpacing=1;" vertex="1" parent="yMuoYjZbkn46zVgACYHf-1">
          <mxGeometry x="390" y="1280" width="70" height="40" as="geometry" />
        </mxCell>
        <mxCell id="yMuoYjZbkn46zVgACYHf-4" value="&lt;h1 style=&quot;margin-top: 0px;&quot;&gt;Jacob Welty - Website&lt;/h1&gt;" style="text;html=1;whiteSpace=wrap;overflow=hidden;rounded=0;align=center;" parent="1" vertex="1">
          <mxGeometry y="20" width="850" height="40" as="geometry" />
        </mxCell>
      </root>
    </mxGraphModel>
  </diagram>
</mxfile>
